<?xml version="1.0" encoding="UTF-8"?>
<svg id="_圖層_1" data-name="圖層 1" xmlns="http://www.w3.org/2000/svg" viewBox="0 0 376.44 161.11">
  <defs>
    <style>
      .cls-1 {
        fill: #00effe;
      }
    </style>
  </defs>
  <path class="cls-1" d="M40.93,27.39l.67,9.41c-2.07-1.99-4.25-3.58-6.53-4.76-2.29-1.18-5.17-1.77-8.64-1.77-4.35,0-8.52,1.33-12.5,3.99-3.99,2.66-7.23,6.44-9.74,11.34C1.68,50.5,.42,56.38,.42,63.24s1.05,12.77,3.16,17.71c2.1,4.94,5.09,8.74,8.96,11.4,3.87,2.66,8.43,3.99,13.66,3.99,3.03,0,5.98-.72,8.86-2.16,2.87-1.44,5.42-3.26,7.63-5.48h.45l1.43,6.09h16.05V6.36h-19.7V27.39Zm0,47.47c-1.4,2.07-2.86,3.47-4.38,4.21-1.51,.74-3.22,1.11-5.14,1.11-2.22,0-4.13-.59-5.75-1.77s-2.86-3.04-3.71-5.59c-.85-2.55-1.27-5.81-1.27-9.79s.5-7.08,1.49-9.52c1-2.44,2.29-4.24,3.87-5.42s3.27-1.77,5.03-1.77,3.4,.27,5.09,.83c1.7,.55,3.29,1.53,4.76,2.93v24.79Z"/>
  <path class="cls-1" d="M92.74,79.34c1.22-.63,2.24-1.1,3.4-1.68V31.81h-19.7v52.96c3.92,0,7.2-.68,9.85-2.03,2.63-1.36,4.79-2.49,6.44-3.4Z"/>
  <path class="cls-1" d="M86.29,23.07c3.25,0,5.89-.92,7.92-2.77,2.03-1.84,3.04-4.31,3.04-7.41s-1.02-5.46-3.04-7.3c-2.03-1.85-4.67-2.77-7.92-2.77s-5.97,.92-7.96,2.77c-2,1.84-2.99,4.28-2.99,7.3s.99,5.57,2.99,7.41c1.99,1.85,4.65,2.77,7.96,2.77Z"/>
  <path class="cls-1" d="M135.49,79.34c3.17,1.66,6.08,2.97,8.71,3.96,2.65,.99,5.25,1.47,7.81,1.47,.17,0,.35-.04,.52-.05l17.11-52.91h-18.92l-7.75,28.99c-.74,3.1-1.49,6.27-2.27,9.52s-1.57,6.53-2.38,9.85h-.55c-.81-3.32-1.6-6.6-2.38-9.85-.77-3.25-1.57-6.42-2.39-9.52l-7.63-28.99h-19.81l13.47,40.57c2.5,.42,4.93,1.07,7.18,2.21,3.63,1.81,6.72,3.4,9.28,4.75Z"/>
  <path class="cls-1" d="M219.2,23.07c3.25,0,5.89-.92,7.92-2.77,2.03-1.84,3.04-4.31,3.04-7.41s-1.02-5.46-3.04-7.3c-2.03-1.85-4.67-2.77-7.92-2.77s-5.97,.92-7.96,2.77c-2,1.84-2.99,4.28-2.99,7.3s.99,5.57,2.99,7.41c1.99,1.85,4.65,2.77,7.96,2.77Z"/>
  <path class="cls-1" d="M217.51,82.74c2.63,1.35,5.91,2.03,9.83,2.03,.63,0,1.12-.13,1.71-.16V31.81h-19.7v46.58c.67,.34,1.24,.59,1.93,.95,1.51,.9,3.57,2.03,6.22,3.4Z"/>
  <path class="cls-1" d="M264.58,71.9v-19.18c1.92-1.84,3.66-3.25,5.21-4.21s3.42-1.44,5.64-1.44c2.51,0,4.35,.77,5.54,2.32,1.18,1.55,1.77,4.5,1.77,8.85v19.41c1.12,.58,2.24,1.15,3.21,1.66,3.17,1.66,6.08,2.97,8.71,3.96,2.55,.95,5.16,1.42,7.78,1.45v-28.92c0-7.89-1.55-14.13-4.65-18.7-3.1-4.57-8.08-6.86-14.93-6.86-4.29,0-8.07,.92-11.35,2.77-3.29,1.84-6.21,4.06-8.8,6.64h-.33l-1.44-7.86h-16.04v46.69c3.11-1.59,6.15-3.1,8.93-4.36,3.22-1.47,6.83-2.19,10.77-2.23Z"/>
  <path class="cls-1" d="M369.65,86.2c-4.24-2.54-10.24-3.82-17.98-3.82h-9.96c-3.4,0-5.79-.35-7.19-1.05-1.4-.7-2.11-1.75-2.11-3.15,0-1.11,.16-1.95,.5-2.55,.33-.59,.83-1.22,1.49-1.88,1.4,.37,2.73,.64,3.99,.83,1.25,.18,2.4,.27,3.43,.27,4.65,0,8.86-.73,12.66-2.21s6.83-3.78,9.08-6.92,3.38-7.14,3.38-12.01c0-1.47-.17-2.9-.5-4.26-.33-1.36-.72-2.49-1.16-3.37h9.63v-14.28h-23.14c-1.4-.51-2.94-.9-4.65-1.16-1.69-.26-3.47-.39-5.3-.39-4.5,0-8.76,.83-12.79,2.49-4.02,1.66-7.29,4.19-9.79,7.58-2.51,3.39-3.76,7.63-3.76,12.73,0,3.69,.86,6.95,2.6,9.79,1.73,2.84,3.74,5.03,6.02,6.58v.44c-2.06,1.4-3.76,3.16-5.09,5.26-1.32,2.1-1.99,4.26-1.99,6.47,0,2.66,.55,4.85,1.66,6.59s2.48,3.15,4.1,4.26v.55c-2.95,1.48-5.17,3.26-6.64,5.37-1.48,2.1-2.22,4.44-2.22,7.02,0,3.76,1.18,6.81,3.54,9.13,2.36,2.32,5.55,4.02,9.57,5.09,4.02,1.07,8.43,1.61,13.22,1.61,7.3,0,13.63-.98,18.98-2.94s9.47-4.63,12.39-8.02c2.92-3.4,4.38-7.3,4.38-11.73,0-5.68-2.13-9.79-6.37-12.34Zm-34.74-38.45c.69-1.4,1.66-2.47,2.87-3.21,1.22-.73,2.57-1.1,4.04-1.1s2.93,.37,4.14,1.1c1.22,.74,2.18,1.81,2.88,3.21,.7,1.4,1.05,3.17,1.05,5.31s-.35,4.06-1.05,5.53-1.67,2.58-2.88,3.32-2.59,1.11-4.14,1.11-2.83-.37-4.04-1.11-2.18-1.84-2.87-3.32c-.7-1.48-1.05-3.32-1.05-5.53s.35-3.91,1.05-5.31Zm20.42,57.77c-1.18,1.03-2.79,1.86-4.82,2.49-2.03,.63-4.4,.94-7.13,.94-3.99,0-7.2-.55-9.64-1.66-2.43-1.11-3.65-2.76-3.65-4.98,0-1.03,.23-2.01,.72-2.93,.48-.92,1.2-1.83,2.15-2.71,1.04,.29,2.22,.5,3.55,.61,1.32,.11,3.13,.17,5.42,.17h5.97c2.95,0,5.22,.27,6.81,.83s2.38,1.79,2.38,3.71c0,1.33-.59,2.51-1.77,3.54Z"/>
  <g>
    <path class="cls-1" d="M285.94,132.27c-2.58-1.35-5.67-2.94-9.28-4.75-3.63-1.8-7.55-2.72-11.76-2.72s-7.77,.75-11.08,2.26c-3.31,1.51-6.87,3.24-10.64,5.2-1.51,.91-3.53,2.03-6.11,3.4-2.56,1.35-5.8,2.03-9.72,2.03s-7.2-.68-9.83-2.03c-2.65-1.36-4.71-2.49-6.22-3.4-3.77-1.96-7.27-3.69-10.53-5.2-3.24-1.51-6.98-2.26-11.19-2.26s-8.14,.87-11.76,2.6c-3.63,1.73-6.7,3.35-9.28,4.86-3.17,1.66-6.06,2.98-8.71,3.96-2.63,.99-5.23,1.47-7.81,1.47s-5.16-.49-7.81-1.47c-2.63-.98-5.54-2.3-8.71-3.96-2.56-1.35-5.65-2.94-9.28-4.75-3.61-1.8-7.53-2.72-11.76-2.72s-7.95,.75-11.19,2.26c-3.24,1.51-6.74,3.24-10.51,5.2-1.66,.91-3.81,2.03-6.44,3.4-2.65,1.35-5.93,2.03-9.85,2.03v20.58c4.82,0,8.86-.87,12.1-2.6,3.26-1.74,6.22-3.36,8.95-4.87,3.17-1.66,6.11-2.97,8.82-3.96,2.71-.98,5.43-1.46,8.14-1.46s5.74,.67,9.06,2.03c3.31,1.35,5.8,2.49,7.46,3.39,2.87,1.67,6.08,3.32,9.63,4.98,3.53,1.66,7.35,2.49,11.41,2.49s7.88-.83,11.43-2.49c3.53-1.66,6.74-3.31,9.61-4.98,1.51-.9,3.96-2.03,7.35-3.39,3.41-1.36,6.46-2.03,9.17-2.03s5.43,.49,8.14,1.46c2.72,.99,5.67,2.3,8.84,3.96,2.71,1.51,5.62,3.13,8.71,4.87,3.09,1.73,7.12,2.6,12.1,2.6s8.82-.87,11.99-2.6c3.17-1.74,6.04-3.36,8.6-4.87,3.17-1.66,6.11-2.97,8.84-3.96,2.71-.98,5.41-1.46,8.14-1.46,2.87,0,5.93,.67,9.17,2.03,3.24,1.35,5.69,2.49,7.35,3.39,2.87,1.67,6.11,3.32,9.72,4.98,3.63,1.66,7.47,2.49,11.54,2.49v-20.58c-2.71,0-5.39-.49-8.03-1.47-2.63-.98-5.54-2.3-8.71-3.96Z"/>
    <path class="cls-1" d="M302.42,101.49c-2.62-.03-5.23-.5-7.78-1.45-2.63-.99-5.54-2.3-8.71-3.96-.97-.51-2.09-1.09-3.21-1.66-1.85-.95-3.82-1.96-6.07-3.09-3.63-1.81-7.55-2.72-11.76-2.72-.11,0-.21,.03-.31,.03-3.94,.04-7.54,.76-10.77,2.23-2.78,1.26-5.82,2.78-8.93,4.36-.6,.3-1.11,.52-1.71,.84-1.51,.9-3.53,2.03-6.11,3.4-2.15,1.14-4.89,1.69-8.01,1.87-.59,.03-1.09,.16-1.71,.16-3.92,0-7.2-.68-9.83-2.03-2.65-1.36-4.71-2.49-6.22-3.4-.69-.36-1.26-.61-1.93-.95-3-1.53-5.94-3.02-8.6-4.25-3.24-1.51-6.98-2.26-11.19-2.26s-8.14,.87-11.76,2.6c-3.63,1.73-6.7,3.35-9.28,4.86-3.17,1.66-6.06,2.97-8.71,3.96-2.46,.92-4.88,1.36-7.29,1.42-.17,0-.35,.05-.52,.05-2.56,0-5.16-.49-7.81-1.47-2.63-.99-5.54-2.3-8.71-3.96-2.56-1.35-5.65-2.94-9.28-4.75-2.26-1.13-4.68-1.78-7.18-2.21-1.5-.25-3-.51-4.58-.51-4.22,0-7.95,.75-11.19,2.26-2.19,1.01-4.68,2.29-7.11,3.52-1.16,.59-2.18,1.05-3.4,1.68-1.66,.9-3.81,2.03-6.44,3.4-2.65,1.35-5.93,2.03-9.85,2.03v20.58c4.82,0,8.86-.87,12.1-2.6,3.26-1.74,6.22-3.36,8.95-4.87,3.17-1.66,6.11-2.97,8.82-3.96s5.43-1.47,8.14-1.47,5.74,.68,9.06,2.04c3.31,1.35,5.8,2.49,7.46,3.39,2.87,1.66,6.08,3.32,9.63,4.98,3.53,1.66,7.35,2.49,11.41,2.49s7.88-.83,11.43-2.49c3.53-1.66,6.74-3.32,9.61-4.98,1.51-.9,3.96-2.03,7.35-3.39,3.41-1.36,6.46-2.04,9.17-2.04s5.43,.49,8.14,1.47c2.72,.99,5.67,2.3,8.84,3.96,2.71,1.51,5.62,3.13,8.71,4.87,3.09,1.73,7.12,2.6,12.1,2.6s8.82-.87,11.99-2.6c3.17-1.74,6.04-3.36,8.6-4.87,2.49-1.3,4.72-2.22,6.94-3.11,.61-.24,1.31-.64,1.9-.85,2.6-.95,5.2-1.41,7.82-1.44,.11,0,.21-.03,.31-.03,2.87,0,5.93,.68,9.17,2.04,3.24,1.35,5.69,2.49,7.35,3.39,2.87,1.66,6.11,3.32,9.72,4.98,3.63,1.66,7.47,2.49,11.54,2.49v-20.58c-.08,0-.17-.02-.25-.02Z"/>
  </g>
  <path class="cls-1" d="M196.82,68.56c0,4.01-3.25,7.26-7.26,7.26s-7.26-3.25-7.26-7.26c0-5.21,7.26-11.05,7.26-11.05,0,0,7.26,5.84,7.26,11.05Z"/>
</svg>